PathFileType	4	(X/Y/Z)	KinectSkeleton.trc																																																	
DataRate	CameraRate	NumFrames	NumMarkers	Units	OrigDataRate	OrigDataStartFrame	OrigNumFrames																																													
60	60	15	17	mm	60	248	300																																													
Frame#	Time	Neck			ShoulderMid			R.Shoulder			L.Shoulder			R.Elbow			L.Elbow			R.Wrist			L.Wrist			HipCenter			R.Hip			L.Hip			R.Knee			L.Knee			R.Ankle			L.Ankle			R.Foot			L.Foot		
		X1	Y1	Z1	X2	Y2	Z2	X3	Y3	Z3	X4	Y4	Z4	X5	Y5	Z5	X6	Y6	Z6	X7	Y7	Z7	X8	Y8	Z8	X9	Y9	Z9	X10	Y10	Z10	X11	Y11	Z11	X12	Y12	Z12	X13	Y13	Z13	X14	Y14	Z14	X15	Y15	Z15	X16	Y16	Z16	X17	Y17	Z17
																																																				
248	12.537	-1579.089	1535.072	485.759	-1579.089	1535.072	485.759	-1663.468	1518.177	649.242	-1466.164	1468.193	339.188	-1888.51	1312.484	690.523	-1244.26	1288.591	240.817	-1993.127	1135.261	843.855	-996.349	1236.164	236.512	-1672.012	958.045	543.24	-1673.231	967.46	632.58	-1670.661	947.603	444.166	-1694.608	541.001	725.388	-1692.368	511.898	476.41	-1854.256	152.245	768.355	-1741.235	98.894	518.933	-1739.673	48.696	876.144	-1551.882	21.137	517.631
249	12.581	-1580.779	1534.627	486.063	-1580.779	1534.627	486.063	-1664.98	1520.424	649.19	-1471.962	1465.689	337.814	-1889.296	1315.253	691.219	-1257.457	1283.151	231.129	-1996.614	1136.668	839.948	-1010.022	1232.162	222.292	-1677.416	959.842	545.39	-1678.302	969.361	634.494	-1676.433	949.284	446.578	-1705.355	544.54	728.127	-1698.37	514.537	476.507	-1871.069	159.164	767.957	-1746.821	102.323	516.714	-1766.977	47.86	877.808	-1556.585	28.158	516.269
250	12.628	-1580.802	1533.641	485.211	-1580.802	1533.641	485.211	-1662.855	1521.84	648.724	-1473.324	1463.884	337.908	-1888.021	1320.026	692.827	-1262.349	1278.27	233.144	-1982.181	1145.264	852.71	-1017.562	1220.412	223.745	-1680.345	962.17	547.971	-1681.271	972.018	636.652	-1679.317	951.249	449.626	-1715.167	548.249	723.943	-1698.38	518.294	480.311	-1894.985	170.327	753.684	-1747.125	108.141	522.702	-1802.4	47.556	860.194	-1559.773	29.379	517.239
251	12.674	-1590.841	1533.987	486.456	-1590.841	1533.987	486.456	-1674.019	1524.939	649.411	-1485.991	1462.361	337.895	-1901.292	1325.649	694.766	-1286.78	1271.834	219.557	-1990.415	1155.44	862.375	-1044.29	1206.649	201.078	-1691.626	962.832	552.002	-1692.585	972.986	640.674	-1690.562	951.572	453.668	-1742.347	548.939	719.176	-1708.123	518.46	484.779	-1929.91	174.517	746.982	-1753.412	107.763	526.884	-1800.233	67.88	829.574	-1563.975	34.39	517.528
252	12.721	-1595.05	1527.538	488.741	-1595.05	1527.538	488.741	-1677.457	1520.867	650.68	-1492.003	1456.805	340.884	-1898.465	1318.859	700.62	-1306.592	1252.451	228.554	-1971.241	1153.435	877.974	-1068.352	1176.758	222.592	-1699.385	961.422	557.226	-1700.547	972.128	645.212	-1698.097	949.549	459.652	-1768.526	552.503	717.086	-1714.557	518.972	484.271	-1924.181	168.266	760.259	-1767.425	111.858	524.198	-1767.833	80.571	809.186	-1580.348	36.228	515.674
253	12.769	-1606.231	1527.382	490.5	-1606.231	1527.382	490.5	-1686.781	1521.507	652.946	-1506.783	1451.957	343.101	-1897.704	1312.269	708.374	-1332.502	1230.789	249.873	-1927.541	1155.111	903.225	-1097.164	1150.364	261.052	-1716.677	965.471	563.501	-1717.964	977.103	650.976	-1715.249	952.571	466.494	-1836.956	569.609	714.526	-1723.899	523.621	490.437	-2017.485	198.507	758.166	-1766.139	116.941	528.822	-1867.555	91.562	775.803	-1582.323	37.541	510.343
254	12.814	-1611.886	1527.493	492.105	-1611.886	1527.493	492.105	-1692.445	1529.054	653.755	-1515.003	1454.488	340.384	-1913.134	1328.351	713.086	-1347.391	1217.167	271.921	-1900.906	1142.647	885.513	-1116.57	1122.66	295.532	-1732.687	965.382	572.891	-1738.516	980.56	660.206	-1726.222	948.55	476.063	-1879.334	576.857	721.792	-1726.485	516.563	495.734	-2061.378	203.949	768.776	-1759.69	105.711	525.64	-1901.241	113.952	799.119	-1566.597	47.877	507.745
255	12.859	-1619.198	1528.775	496.963	-1619.198	1528.775	496.963	-1699.6	1532.729	657.523	-1528.267	1456.259	341.933	-1906.459	1319.568	718.817	-1372.491	1212.96	270.232	-1852.762	1145.049	893.929	-1142.809	1117.304	292.827	-1739.543	967.973	576.241	-1745.42	982.834	663.353	-1733.026	951.494	479.637	-1865.736	573.245	720.886	-1738.655	520.592	495.152	-2073.707	213.315	745.905	-1784.504	112.046	523.854	-1924.7	112.927	792.682	-1593.766	47.534	510.558
256	12.906	-1638	1526.588	502.819	-1638	1526.588	502.819	-1717.354	1528.933	664.013	-1548.53	1448.824	349.271	-1894.567	1301.079	753.746	-1400.753	1197.538	294.228	-1809.438	1145.396	932.897	-1173.61	1101.6	328.888	-1758.329	967.863	583.387	-1764.903	982.822	670.132	-1751.039	951.273	487.19	-1906.557	581.618	727.447	-1749.811	521.633	498.177	-2109.738	221.271	761.241	-1787.595	113.329	521.98	-1960.254	119.917	801.508	-1597.229	50.47	505.911
257	12.952	-1644.957	1525.158	507.285	-1644.957	1525.158	507.285	-1726.044	1530.532	666.553	-1566.116	1451.841	347.039	-1898.445	1302.999	764.164	-1431.25	1191.824	303.744	-1791.066	1149.944	932.62	-1209.22	1087.52	343.534	-1772.164	969.959	591.254	-1782.789	986.949	677.045	-1760.382	951.119	496.115	-1890.869	577.115	739.959	-1689.111	528.178	489.803	-2096.771	218.655	766.773	-1774.014	128.471	522.677	-1944.774	136.008	831.38	-1592.136	46.055	502.163
258	12.999	-1653.16	1523.577	509.923	-1653.16	1523.577	509.923	-1732.718	1532.014	670.747	-1567.256	1445.165	354.869	-1845.347	1270.204	773.496	-1449.967	1175.194	312.803	-1704.965	1125.269	925.659	-1227.67	1094.916	392.922	-1785.527	967.789	598.747	-1796.342	985.111	684.828	-1773.534	948.579	503.286	-1916.907	576.868	747.678	-1713.075	522.102	500.278	-2120.106	215.316	779.981	-1779.601	116.62	525.35	-1962.028	134.962	834.287	-1590.906	47.396	510.048
259	13.044	-1679.133	1520.188	536.35	-1679.133	1520.188	536.35	-1752.995	1530.189	697.756	-1591.786	1437.401	382.536	-1837.907	1248.758	770.242	-1483.531	1163.49	343.174	-1663.617	1112.647	892.228	-1269.795	1078.874	439.902	-1811.764	963.134	612.342	-1823.325	979.049	698.539	-1798.943	945.485	516.753	-1962.75	574.916	744.866	-1731.333	520.439	508.25	-2173.529	217.33	767.957	-1752.35	109.776	521.042	-2025.336	117.764	817.712	-1558.525	55.987	510.196
260	13.091	-1693.937	1518.248	545.712	-1693.937	1518.248	545.712	-1772.289	1526.226	704.568	-1609.735	1438.868	388.681	-1821.56	1239.181	785.066	-1489.532	1169.764	355.854	-1651.614	1102.533	911.458	-1273.811	1081.25	442.919	-1823.326	961.007	615.924	-1834.995	976.355	702.028	-1810.385	943.988	520.438	-1968.182	571.553	752.704	-1744.214	519.604	511.059	-2192.973	223.321	771.223	-1771.724	110.176	524.689	-2050.24	114.798	816.645	-1580.783	49.797	506.986
261	13.139	-1723.261	1517.132	564.724	-1723.261	1517.132	564.724	-1799.906	1523.271	724.583	-1656.348	1452.794	395.628	-1806.607	1226.63	781.329	-1561.502	1173.038	370.239	-1631.77	1085.081	894.889	-1348.879	1076.005	455.67	-1848.045	958.421	623.665	-1865.609	972.854	708.901	-1828.568	942.415	529.141	-2005.279	569.786	754.891	-1781.422	515.649	517.666	-2243.769	230.451	748.958	-1768.145	105.396	513.965	-2128.865	95.523	801.77	-1573.146	60.503	495.016
262	13.185	-1723.708	1517.103	564.883	-1723.708	1517.103	564.883	-1800.401	1523.1	724.712	-1656.861	1452.882	395.737	-1807.245	1226.428	781.09	-1562.264	1173.097	370.162	-1632.693	1084.505	894.557	-1349.674	1075.837	455.333	-1848.214	958.387	623.711	-1865.783	972.805	708.938	-1828.729	942.398	529.197	-2004.945	569.598	754.779	-1781.605	515.681	517.69	-2242.155	229.421	749.141	-1768.479	105.471	513.988	-2126.783	94.867	801.806	-1573.543	60.416	495.032
